<?xml version="1.0" encoding="UTF-8"?>
<svg version="1.1" xmlns="http://www.w3.org/2000/svg" width="150" height="154">
<path d="M0 0 C49.5 0 99 0 150 0 C150 50.82 150 101.64 150 154 C100.5 154 51 154 0 154 C0 103.18 0 52.36 0 0 Z " fill="#DDDDDD" transform="translate(0,0)"/>
<path d="M0 0 C6.27859772 3.79446243 10.62067347 9.22874594 15 15 C16.30055301 16.4896819 17.61006117 17.97172497 18.9375 19.4375 C19.63891113 20.26266113 19.63891113 20.26266113 20.35449219 21.10449219 C26.11245032 27.73724989 32.48560792 33.10493278 39.625 38.1875 C41.26429996 39.36671342 42.90234951 40.54766732 44.5390625 41.73046875 C45.25271973 42.23989014 45.96637695 42.74931152 46.70166016 43.27416992 C47.4601123 43.84369385 48.21856445 44.41321777 49 45 C50.06774658 45.69182373 51.13549316 46.38364746 52.2355957 47.09643555 C54.14416558 48.71593426 54.90241696 49.6261865 55.53948975 52.06663513 C55.74537683 54.6398087 55.75307294 57.14583816 55.69140625 59.7265625 C55.69003159 60.67002533 55.68865692 61.61348816 55.6872406 62.58554077 C55.67819052 64.58106812 55.65458235 66.57657532 55.61743164 68.57177734 C55.563054 71.5942075 55.55590033 74.61385285 55.55664062 77.63671875 C55.43103163 100.78197447 55.43103163 100.78197447 50.46411133 106.88818359 C48.45067332 108.85120058 46.30505257 110.38258916 44 112 C42.61166237 112.99565215 41.22367396 113.99179136 39.8359375 114.98828125 C36.20706095 117.57861271 32.555706 120.13438131 28.88769531 122.66894531 C26.93147286 124.00058963 26.93147286 124.00058963 25.01074219 125.72949219 C23 127 23 127 20.92358398 126.90014648 C18.57543359 125.80132297 17.69879486 124.72110578 16.22265625 122.59765625 C15.71605469 121.88158203 15.20945312 121.16550781 14.6875 120.42773438 C13.883125 119.25694336 13.883125 119.25694336 13.0625 118.0625 C11.89742238 116.40735005 10.73204968 114.75240777 9.56640625 113.09765625 C8.97359863 112.2483252 8.38079102 111.39899414 7.77001953 110.52392578 C5.05493467 106.65240202 2.2767128 102.82742936 -0.5 99 C-1.5836845 97.50025369 -2.66701672 96.00025276 -3.75 94.5 C-4.28625 93.7575 -4.8225 93.015 -5.375 92.25 C-7 90 -8.625 87.75 -10.25 85.5 C-10.7872168 84.7562915 -11.32443359 84.01258301 -11.87792969 83.24633789 C-12.95199751 81.75890592 -14.02557219 80.27111773 -15.09863281 78.78295898 C-17.94460992 74.83747855 -20.80100078 70.90006664 -23.671875 66.97265625 C-24.27064453 66.15087891 -24.86941406 65.32910156 -25.48632812 64.48242188 C-26.63815061 62.90201428 -27.79297057 61.32378573 -28.95117188 59.74804688 C-29.46744141 59.03841797 -29.98371094 58.32878906 -30.515625 57.59765625 C-30.97227539 56.97383057 -31.42892578 56.35000488 -31.89941406 55.70727539 C-33 54 -33 54 -34 51 C-34.66 51 -35.32 51 -36 51 C-36.39445312 51.8353125 -36.39445312 51.8353125 -36.796875 52.6875 C-42.19286653 63.05901619 -49.85738593 72.5533353 -56.56640625 82.10546875 C-60.74089575 88.04969196 -64.87570704 94.02086629 -69 100 C-79.12537459 89.87462541 -79.09382602 71.2373781 -79.1315918 57.85098267 C-79.01917104 47.06696493 -77.93743658 38.88103634 -69.98828125 31.05078125 C-69.46830566 30.55787598 -68.94833008 30.0649707 -68.41259766 29.55712891 C-66.88929896 27.87797248 -66.08509639 26.35875771 -65.16796875 24.29296875 C-59.4632501 11.92204443 -47.60972324 7.0793924 -35.521698 2.37246704 C-24.09157604 -1.83621881 -11.78127529 -4.49626735 0 0 Z " fill="#220D82" transform="translate(85,8)"/>
<path d="M0 0 C0.66 0 1.32 0 2 0 C3.21411133 1.36669922 3.21411133 1.36669922 4.58203125 3.3046875 C5.09531982 4.02430664 5.6086084 4.74392578 6.13745117 5.48535156 C6.69021729 6.27393555 7.2429834 7.06251953 7.8125 7.875 C8.99199548 9.5339907 10.17168852 11.19284096 11.3515625 12.8515625 C11.95645508 13.7065332 12.56134766 14.56150391 13.18457031 15.44238281 C15.99209052 19.3976789 18.84114347 23.32261417 21.6875 27.25 C25.87163614 33.03864466 30.03606863 38.84081644 34.18115234 44.6574707 C38.24520071 50.35520396 42.34518004 56.0268797 46.44726562 61.69726562 C46.96611328 62.41462891 47.48496094 63.13199219 48.01953125 63.87109375 C48.77097412 64.90919189 48.77097412 64.90919189 49.53759766 65.96826172 C50.95739083 67.94080242 52.35999014 69.92475872 53.76171875 71.91015625 C55.82690338 74.93211744 55.82690338 74.93211744 58 77 C52.98705271 77.40984179 47.97402888 77.8187311 42.9609375 78.22680664 C41.26202387 78.36522832 39.56312999 78.50389271 37.86425781 78.64282227 C35.39653824 78.84458092 32.92875727 79.04556459 30.4609375 79.24609375 C29.65199036 79.31194672 28.84304321 79.37779968 28.00958252 79.44564819 C22.01480517 79.92923995 16.01817939 80.35458121 10.01611328 80.73852539 C7.85705979 80.92569928 5.70484451 81.19963684 3.56298828 81.52978516 C-0.74567986 82.19123062 -4.12214497 82.36828374 -7.78320312 79.70068359 C-12.34298019 75.56152767 -16.16871666 70.80311525 -20 66 C-20.89912051 64.91918546 -21.8011733 63.840799 -22.70703125 62.765625 C-24.84088173 60.20358894 -26.92176395 57.60709135 -29 55 C-30.65822824 52.99279688 -32.32837747 50.99609692 -34 49 C-33.6596875 48.5145874 -33.319375 48.0291748 -32.96875 47.52905273 C-25.75570814 37.23823852 -18.55544281 26.93859121 -11.375 16.625 C-10.36373047 15.17371704 -10.36373047 15.17371704 -9.33203125 13.69311523 C-8.69394531 12.77602783 -8.05585937 11.85894043 -7.3984375 10.9140625 C-6.80385742 10.06102539 -6.20927734 9.20798828 -5.59667969 8.32910156 C-4.24295473 6.35440185 -2.94593022 4.35738972 -1.6640625 2.3359375 C-1.11492188 1.56507812 -0.56578125 0.79421875 0 0 Z " fill="#018CD5" transform="translate(49,59)"/>
<path d="M0 0 C0 3.54376662 -0.73238512 4.43159836 -2.71875 7.296875 C-3.31292725 8.16111084 -3.90710449 9.02534668 -4.51928711 9.91577148 C-5.17292236 10.85106689 -5.82655762 11.7863623 -6.5 12.75 C-7.51235718 14.21578491 -7.51235718 14.21578491 -8.54516602 15.71118164 C-10.68978198 18.81237109 -12.84426944 21.90652909 -15 25 C-16.33241282 26.92030822 -17.66445353 28.84087469 -18.99609375 30.76171875 C-22.29496741 35.51528137 -25.60291456 40.26245329 -28.91357422 45.0078125 C-32.61380839 50.31439687 -36.30638676 55.62630616 -40 60.9375 C-41.35413475 62.88413678 -42.70829834 64.83075351 -44.0625 66.77734375 C-44.63097656 67.59452881 -45.19945312 68.41171387 -45.78515625 69.25366211 C-46.38650391 70.11809937 -46.38650391 70.11809937 -47 71 C-55.7852186 62.2147814 -56.46861489 47.11055536 -56.48779297 35.4375 C-56.43507361 28.62125991 -56.26985985 21.81114393 -56 15 C-46.03604332 11.95906176 -36.06873935 9.2396732 -25.91845703 6.88720703 C-17.20386651 4.8521402 -8.60060603 2.46781736 0 0 Z " fill="#F20226" transform="translate(63,37)"/>
<path d="M0 0 C-1.52244977 2.45503396 -3.06478393 4.8881962 -4.6484375 7.3046875 C-6.45720224 10.08439089 -8.09779133 12.93186799 -9.7265625 15.8203125 C-17.87213031 29.66273984 -17.87213031 29.66273984 -24.2109375 31.93359375 C-27.98911934 32.88137217 -31.80744144 33.31286071 -35.67822266 33.69873047 C-39.52682944 34.19811856 -43.16536177 35.32694267 -46.875 36.4375 C-48.3507205 36.85843194 -49.8273006 37.2763609 -51.3046875 37.69140625 C-52.05717773 37.90297363 -52.80966797 38.11454102 -53.58496094 38.33251953 C-58.04351429 39.56479661 -62.51857605 40.72908533 -67 41.875 C-68.30106689 42.21615845 -68.30106689 42.21615845 -69.62841797 42.56420898 C-70.83328857 42.86887085 -70.83328857 42.86887085 -72.0625 43.1796875 C-72.77535156 43.36257324 -73.48820312 43.54545898 -74.22265625 43.73388672 C-76 44 -76 44 -78 43 C-76.98292969 41.63681641 -76.98292969 41.63681641 -75.9453125 40.24609375 C-75.50227783 39.64659912 -75.05924316 39.04710449 -74.6027832 38.42944336 C-73.59906572 37.07650582 -72.58685296 35.72983791 -71.56713867 34.38891602 C-69.09022604 31.08240809 -66.86057964 27.93455646 -65.16796875 24.15625 C-59.07000764 11.34266442 -46.08498428 6.27271478 -33.43359375 1.5234375 C-22.37696835 -2.37292728 -11.45241715 -2.01199569 0 0 Z " fill="#AF0476" transform="translate(85,8)"/>
<path d="M0 0 C5.61 0 11.22 0 17 0 C17 5.28 17 10.56 17 16 C22.61 16 28.22 16 34 16 C34 10.72 34 5.44 34 0 C41.92 0 49.84 0 58 0 C58 22.44 58 44.88 58 68 C55.69 68 53.38 68 51 68 C51 62.39 51 56.78 51 51 C50.01 51 49.02 51 48 51 C47.81824219 49.515 47.81824219 49.515 47.6328125 48 C45.95775549 42.16810272 40.58949109 39.34370156 35.875 36 C34.01620184 34.64861749 32.15940264 33.29448085 30.3046875 31.9375 C28.95540161 30.95245483 28.95540161 30.95245483 27.57885742 29.94750977 C2.81076586 11.24306346 2.81076586 11.24306346 0 0 Z " fill="#CCCCCC" transform="translate(92,13)"/>
<path d="M0 0 C0.33 0 0.66 0 1 0 C1.17066105 9.05767701 0.69233325 18.06038739 0.20236206 27.10006714 C-0.62195029 42.34975577 -1.28641244 57.59249027 -1.65795898 72.86010742 C-1.82647826 79.30114576 -2.16586517 85.60956211 -3 92 C-6.78303545 88.52850865 -9.53874245 84.57470308 -12.4375 80.375 C-13.49505903 78.85735136 -14.55369189 77.34045056 -15.61328125 75.82421875 C-16.16322754 75.03708496 -16.71317383 74.24995117 -17.27978516 73.43896484 C-20.73032547 68.54670006 -24.26927371 63.71718048 -27.81030273 58.89013672 C-28.58869507 57.82110107 -28.58869507 57.82110107 -29.3828125 56.73046875 C-29.84059082 56.10551514 -30.29836914 55.48056152 -30.77001953 54.83666992 C-32.02972417 52.95561435 -33.03219579 51.04436634 -34 49 C-25.6502246 36.73351246 -17.22038706 24.52641048 -8.67675781 12.39404297 C-7.46515849 10.66414445 -6.2624869 8.92798134 -5.06542969 7.18798828 C-4.11651855 5.81296143 -4.11651855 5.81296143 -3.1484375 4.41015625 C-2.280979 3.14570679 -2.280979 3.14570679 -1.39599609 1.85571289 C-0.70497803 0.93713501 -0.70497803 0.93713501 0 0 Z " fill="#210C82" transform="translate(84,9)"/>
<path d="M0 0 C0.33 0 0.66 0 1 0 C1.07471366 6.0648333 1.12886656 12.12939276 1.16479492 18.19458008 C1.17978857 20.25354689 1.20019033 22.31248227 1.22631836 24.37133789 C1.551111 50.64133128 1.551111 50.64133128 -3.53735352 56.88696289 C-5.54944075 58.85201994 -7.69455442 60.38231339 -10 62 C-11.38833763 62.99565215 -12.77632604 63.99179136 -14.1640625 64.98828125 C-17.79293905 67.57861271 -21.444294 70.13438131 -25.11230469 72.66894531 C-27.06852714 74.00058963 -27.06852714 74.00058963 -28.98925781 75.72949219 C-31 77 -31 77 -33.06762695 76.91333008 C-35.48397527 75.7712506 -36.39785781 74.57852493 -37.91796875 72.38671875 C-38.44624268 71.63841797 -38.9745166 70.89011719 -39.51879883 70.11914062 C-40.06947021 69.31669922 -40.6201416 68.51425781 -41.1875 67.6875 C-42.3400801 66.04482463 -43.49373076 64.40289991 -44.6484375 62.76171875 C-45.21401367 61.9526709 -45.77958984 61.14362305 -46.36230469 60.31005859 C-49.28926214 56.18142541 -52.39207245 52.18978067 -55.48828125 48.1875 C-57 46 -57 46 -57 44 C-54.03528096 43.1609948 -51.29467758 42.82649872 -48.21899414 42.70288086 C-47.27443863 42.66291489 -46.32988312 42.62294891 -45.35670471 42.58177185 C-44.34309372 42.54318558 -43.32948273 42.5045993 -42.28515625 42.46484375 C-41.23726425 42.42186661 -40.18937225 42.37888947 -39.10972595 42.33460999 C-35.76079448 42.19835295 -32.41166073 42.06798678 -29.0625 41.9375 C-26.81053228 41.84606186 -24.55857893 41.75426909 -22.30664062 41.66210938 C-20.15365878 41.57519941 -18.00066436 41.48860051 -15.84765625 41.40234375 C-14.83606949 41.36173325 -13.82448273 41.32112274 -12.78224182 41.27928162 C-11.83453415 41.2424678 -10.88682648 41.20565399 -9.91040039 41.16772461 C-9.08085342 41.13521103 -8.25130646 41.10269745 -7.3966217 41.06919861 C-4.92970692 40.9979704 -2.46780058 40.98820417 0 41 C-0.33773437 39.85402344 -0.67546875 38.70804688 -1.0234375 37.52734375 C-1.47397303 35.99740016 -1.92449304 34.467452 -2.375 32.9375 C-2.70757812 31.80924805 -2.70757812 31.80924805 -3.046875 30.65820312 C-3.48917164 29.15569543 -3.92530697 27.65136012 -4.35522461 26.14526367 C-4.94210652 24.19262024 -5.63563981 22.27283876 -6.33984375 20.359375 C-7.19057161 16.0302273 -6.21391087 14.17777581 -4.1875 10.3125 C-1.57087503 5.34595871 -1.57087503 5.34595871 0 0 Z " fill="#131676" transform="translate(139,58)"/>
<path d="M0 0 C3.62740471 1.3271091 6.6287091 2.93920658 9.80859375 5.125 C10.71440186 5.74479736 11.62020996 6.36459473 12.5534668 7.00317383 C13.50519775 7.66212646 14.45692871 8.3210791 15.4375 9 C16.41436768 9.67119873 17.39123535 10.34239746 18.39770508 11.03393555 C25.12242656 15.66657073 31.79700503 20.36494801 38.41796875 25.14453125 C40.25435067 26.4641703 42.11843535 27.74562356 44 29 C44.103125 28.154375 44.20625 27.30875 44.3125 26.4375 C45.0828854 22.58557299 46.36274514 19.55924969 48 16 C48.66 16 49.32 16 50 16 C51.00990692 18.91333079 52.00615952 21.83115319 53 24.75 C53.28617188 25.575 53.57234375 26.4 53.8671875 27.25 C54.13789063 28.04921875 54.40859375 28.8484375 54.6875 29.671875 C54.93886719 30.4050293 55.19023437 31.13818359 55.44921875 31.89355469 C56 34 56 34 56 38 C52.49049625 38.78205169 49.1584084 39.1685534 45.56713867 39.29711914 C44.50641647 39.33708511 43.44569427 39.37705109 42.35282898 39.41822815 C41.2193251 39.45681442 40.08582123 39.4954007 38.91796875 39.53515625 C37.74865311 39.57813339 36.57933746 39.62111053 35.37458801 39.66539001 C31.64568514 39.80156775 27.91660912 39.93210485 24.1875 40.0625 C21.65688758 40.15392503 19.12628841 40.24571753 16.59570312 40.33789062 C10.39728273 40.56285556 4.19871076 40.78319165 -2 41 C-1.88015732 36.92881691 -1.75584005 32.85779536 -1.62768555 28.78686523 C-1.58484114 27.40701849 -1.54314027 26.02713567 -1.50268555 24.6472168 C-1.25996353 16.39766479 -0.88053927 8.20792248 0 0 Z " fill="#49027F" transform="translate(83,61)"/>
<path d="M0 0 C0.33 0.66 0.66 1.32 1 2 C2.87764984 2.51921468 4.7600404 3.02539573 6.65917969 3.45947266 C19.94163855 6.52657361 32.97429518 10.89209244 45.94140625 15.0625 C52.44718827 17.15172398 58.97013343 19.18498165 65.49609375 21.21005249 C67.39475244 21.79923479 69.29308323 22.38947343 71.19140625 22.97973633 C76.77873759 24.71234629 82.36426812 26.43129113 88 28 C88 28.33 88 28.66 88 29 C76.92075089 30.41117807 65.83031599 31.36635776 54.6875 32.125 C53.43759277 32.21249512 52.18768555 32.29999023 50.89990234 32.39013672 C47.26770995 32.62832113 43.63521094 32.81463161 40 33 C38.82679199 33.09676025 37.65358398 33.19352051 36.44482422 33.29321289 C28.31057628 33.73993838 28.31057628 33.73993838 24.81713867 31.76757812 C22.8984026 30.02750151 21.34056098 28.23061782 19.75 26.1875 C19.17064697 25.50695557 18.59129395 24.82641113 17.99438477 24.12524414 C16.29244082 22.11097349 14.64430589 20.06139562 13 18 C12.10087949 16.91918546 11.1988267 15.840799 10.29296875 14.765625 C8.15919819 12.20368489 6.07411804 9.61022482 4 7 C2.34318571 4.99150343 0.67213307 2.99577173 -1 1 C-0.67 0.67 -0.34 0.34 0 0 Z " fill="#03BDDC" transform="translate(16,107)"/>
<path d="M0 0 C19.14 0 38.28 0 58 0 C58 4.29 58 8.58 58 13 C50.08 13 42.16 13 34 13 C34 18.28 34 23.56 34 29 C28.39 29 22.78 29 17 29 C17 23.72 17 18.44 17 13 C11.39 13 5.78 13 0 13 C-0.33 13.66 -0.66 14.32 -1 15 C-1.66 14.01 -2.32 13.02 -3 12 C-2.01 12 -1.02 12 0 12 C0 8.04 0 4.08 0 0 Z " fill="#D1D1D1" transform="translate(92,0)"/>
<path d="M0 0 C0.77939941 0.78012451 1.55879883 1.56024902 2.36181641 2.36401367 C3.97264722 3.97350287 5.58792525 5.57857662 7.2109375 7.17578125 C12.03696756 11.94083259 16.6079211 16.83407863 21 22 C22.14578777 23.33337249 23.29161854 24.66670802 24.4375 26 C25.283125 26.99 26.12875 27.98 27 29 C23.67263898 35.12536915 19.77679087 40.75334094 15.75 46.4375 C15.1003125 47.35982422 14.450625 48.28214844 13.78125 49.23242188 C12.19024739 51.49024176 10.59644487 53.74602657 9 56 C0.2147814 47.2147814 -0.46861489 32.11055536 -0.48779297 20.4375 C-0.43507361 13.62125991 -0.26985985 6.81114393 0 0 Z " fill="#EE0002" transform="translate(7,52)"/>
<path d="M0 0 C7.33353697 6.20312169 13.99422837 12.7468844 20.2578125 20.03515625 C23.03176921 23.16363209 26.00383929 26.08580113 29 29 C26.42124491 30.94908402 23.81880672 32.85171462 21.171875 34.70703125 C20.45386719 35.21169922 19.73585938 35.71636719 18.99609375 36.23632812 C17.51467739 37.27589595 16.03291411 38.3149696 14.55078125 39.35351562 C10.16346073 42.43871695 5.86224338 45.59948521 1.63769531 48.9050293 C0 50 0 50 -2 50 C-2.35456429 33.25668637 -1.2571224 16.68361914 0 0 Z " fill="#DA0269" transform="translate(85,9)"/>
<path d="M0 0 C8.25 0.33 16.5 0.66 25 1 C23.47355947 3.44940457 21.93352806 5.89077193 20.3515625 8.3046875 C18.54279776 11.08439089 16.90220867 13.93186799 15.2734375 16.8203125 C6.64036551 31.46247357 6.64036551 31.46247357 -2.19018555 33.74243164 C-6.80590558 34.58615546 -11.29876717 35 -16 35 C-14.59727316 30.47876456 -12.8130426 26.32497843 -10.7421875 22.0703125 C-10.43427277 21.43511688 -10.12635803 20.79992126 -9.80911255 20.14547729 C-8.83450633 18.13696251 -7.85484669 16.13096259 -6.875 14.125 C-6.20929859 12.75537199 -5.54393067 11.38558185 -4.87890625 10.015625 C-3.25706637 6.67487753 -1.62840162 3.33758556 0 0 Z " fill="#AC0477" transform="translate(60,7)"/>
<path d="M0 0 C1.21236328 1.44052734 1.21236328 1.44052734 2.44921875 2.91015625 C3.42273374 3.94415246 4.40215467 4.97261283 5.38671875 5.99609375 C6.40866505 7.09141056 7.42948573 8.18777859 8.44921875 9.28515625 C8.95710938 9.82398437 9.465 10.3628125 9.98828125 10.91796875 C19.2608701 20.90383366 19.2608701 20.90383366 19.71875 25.78125 C19.29557292 28.15755208 18.87239583 30.53385417 18.44921875 32.91015625 C12.83921875 32.91015625 7.22921875 32.91015625 1.44921875 32.91015625 C1.44921875 27.30015625 1.44921875 21.69015625 1.44921875 15.91015625 C-4.16078125 15.91015625 -9.77078125 15.91015625 -15.55078125 15.91015625 C-15.55078125 10.30015625 -15.55078125 4.69015625 -15.55078125 -1.08984375 C-3.29458963 -2.69924265 -3.29458963 -2.69924265 0 0 Z " fill="#CCCDCD" transform="translate(22.55078125,116.08984375)"/>
<path d="M0 0 C0 5.61 0 11.22 0 17 C-5.61 17 -11.22 17 -17 17 C-17 22.61 -17 28.22 -17 34 C-22.61 34 -28.22 34 -34 34 C-34.49150037 20.85236511 -34.49150037 20.85236511 -32.515625 17.42578125 C-29.11344739 14.14510999 -25.40028362 11.53037136 -21.5 8.875 C-19.98931654 7.83111516 -18.47889146 6.78685628 -16.96875 5.7421875 C-16.30294922 5.2869873 -15.63714844 4.83178711 -14.95117188 4.36279297 C-13.57086364 3.39871882 -12.22250104 2.38813977 -10.89941406 1.34692383 C-7.53111068 -1.04162755 -4.00671763 -0.17676695 0 0 Z " fill="#FDFDFD" transform="translate(143,115)"/>
<path d="M0 0 C0.33 0 0.66 0 1 0 C1.07471366 6.0648333 1.12886656 12.12939276 1.16479492 18.19458008 C1.17978857 20.25354689 1.20019033 22.31248227 1.22631836 24.37133789 C1.49791465 46.33868485 1.49791465 46.33868485 -2 55 C-6.32508783 56.21309722 -9.40278212 55.70192687 -13.7421875 54.671875 C-14.38761505 54.52220276 -15.0330426 54.37253052 -15.69802856 54.21832275 C-17.75940305 53.73844869 -19.81717799 53.24486411 -21.875 52.75 C-24.55899225 52.11591978 -27.2441987 51.48708386 -29.9296875 50.859375 C-30.59289001 50.70392212 -31.25609253 50.54846924 -31.93939209 50.38830566 C-36.69897207 49.28071502 -41.46942943 48.24123112 -46.2578125 47.265625 C-47.45809082 47.02102539 -48.65836914 46.77642578 -49.89501953 46.52441406 C-53.13253119 45.88897604 -53.13253119 45.88897604 -57 46 C-57 45.34 -57 44.68 -57 44 C-54.03528096 43.1609948 -51.29467758 42.82649872 -48.21899414 42.70288086 C-47.27443863 42.66291489 -46.32988312 42.62294891 -45.35670471 42.58177185 C-44.34309372 42.54318558 -43.32948273 42.5045993 -42.28515625 42.46484375 C-41.23726425 42.42186661 -40.18937225 42.37888947 -39.10972595 42.33460999 C-35.76079448 42.19835295 -32.41166073 42.06798678 -29.0625 41.9375 C-26.81053228 41.84606186 -24.55857893 41.75426909 -22.30664062 41.66210938 C-20.15365878 41.57519941 -18.00066436 41.48860051 -15.84765625 41.40234375 C-14.83606949 41.36173325 -13.82448273 41.32112274 -12.78224182 41.27928162 C-11.83453415 41.2424678 -10.88682648 41.20565399 -9.91040039 41.16772461 C-9.08085342 41.13521103 -8.25130646 41.10269745 -7.3966217 41.06919861 C-4.92970692 40.9979704 -2.46780058 40.98820417 0 41 C-0.33773437 39.85402344 -0.67546875 38.70804688 -1.0234375 37.52734375 C-1.47397303 35.99740016 -1.92449304 34.467452 -2.375 32.9375 C-2.70757812 31.80924805 -2.70757812 31.80924805 -3.046875 30.65820312 C-3.48917164 29.15569543 -3.92530697 27.65136012 -4.35522461 26.14526367 C-4.94210652 24.19262024 -5.63563981 22.27283876 -6.33984375 20.359375 C-7.19057161 16.0302273 -6.21391087 14.17777581 -4.1875 10.3125 C-1.57087503 5.34595871 -1.57087503 5.34595871 0 0 Z " fill="#0A318C" transform="translate(139,58)"/>
<path d="M0 0 C6.28572764 2.25594032 11.37551549 6.20042134 16.8125 10 C17.88693359 10.73734375 18.96136719 11.4746875 20.06835938 12.234375 C21.08349609 12.94078125 22.09863281 13.6471875 23.14453125 14.375 C24.07628174 15.02210937 25.00803223 15.66921875 25.96801758 16.3359375 C26.97384888 17.15964844 26.97384888 17.15964844 28 18 C28 18.66 28 19.32 28 20 C26.01169192 21.56552454 24.02219382 23.00980896 21.9375 24.4375 C20.6606908 25.328328 19.38467774 26.22029795 18.109375 27.11328125 C17.43970703 27.58072754 16.77003906 28.04817383 16.08007812 28.52978516 C11.90580252 31.48019451 7.81244773 34.54278215 3.71264648 37.59545898 C-0.89262793 41 -0.89262793 41 -2 41 C-1.88015732 36.92881691 -1.75584005 32.85779536 -1.62768555 28.78686523 C-1.58484114 27.40701849 -1.54314027 26.02713567 -1.50268555 24.6472168 C-1.25996353 16.39766479 -0.88053927 8.20792248 0 0 Z " fill="#AC0276" transform="translate(83,61)"/>
<path d="M0 0 C0.99 0 1.98 0 3 0 C3 5.61 3 11.22 3 17 C5.31 17 7.62 17 10 17 C10 33.83 10 50.66 10 68 C7.69 68 5.38 68 3 68 C3 62.39 3 56.78 3 51 C0.36 51 -2.28 51 -5 51 C-4.71995117 50.29141846 -4.43990234 49.58283691 -4.15136719 48.8527832 C-0.52008867 38.61312359 -0.33701137 28.94756937 -0.25 18.1875 C-0.22177519 16.41598733 -0.19183894 14.64450107 -0.16015625 12.87304688 C-0.08707315 8.5820798 -0.03703081 4.29142339 0 0 Z " fill="#F8F9FA" transform="translate(140,64)"/>
<path d="M0 0 C2.31 0 4.62 0 7 0 C7.23074219 0.76441406 7.46148438 1.52882813 7.69921875 2.31640625 C8.58469167 5.2248173 9.48204156 8.12921679 10.38818359 11.03125 C10.80134378 12.3607487 11.21042646 13.69152041 11.61572266 15.0234375 C12.23156369 17.04049803 12.86412806 19.05167594 13.5 21.0625 C14.07234375 22.90521484 14.07234375 22.90521484 14.65625 24.78515625 C16.02534445 28.06063512 17.4228556 29.63579761 20 32 C20 32.66 20 33.32 20 34 C15.71 34 11.42 34 7 34 C7 39.61 7 45.22 7 51 C4.69 51 2.38 51 0 51 C0 34.17 0 17.34 0 0 Z " fill="#FCFCFC" transform="translate(0,81)"/>
<path d="M0 0 C-0.45439453 0.92337158 -0.90878906 1.84674316 -1.37695312 2.7980957 C-3.06015601 6.22244272 -4.73558862 9.65054235 -6.40869141 13.07983398 C-7.13411214 14.5639442 -7.8616403 16.04702624 -8.59130859 17.52905273 C-9.63934271 19.65862954 -10.67975937 21.79178061 -11.71875 23.92578125 C-12.04685669 24.58838455 -12.37496338 25.25098785 -12.7130127 25.93367004 C-14.10980917 28.81932884 -15 30.7500046 -15 34 C-15.66 34 -16.32 34 -17 34 C-18.29817693 32.23626997 -19.51294883 30.41086049 -20.6875 28.5625 C-24.20374841 23.14349194 -27.94159213 18.02227974 -32 13 C-26.93281384 8.85425888 -20.85805893 6.76816581 -14.875 4.25 C-13.06708984 3.47076172 -13.06708984 3.47076172 -11.22265625 2.67578125 C-10.07410156 2.18980469 -8.92554687 1.70382812 -7.7421875 1.203125 C-6.16219971 0.53265137 -6.16219971 0.53265137 -4.55029297 -0.15136719 C-2 -1 -2 -1 0 0 Z " fill="#DD036A" transform="translate(60,9)"/>
<path d="M0 0 C0.33 0.66 0.66 1.32 1 2 C2.85413299 2.51361615 4.71324757 3.01333677 6.58886719 3.44189453 C10.97411206 4.45694817 15.29356736 5.71620827 19.625 6.9375 C20.54023437 7.18951172 21.45546875 7.44152344 22.3984375 7.70117188 C27.23454389 9.06744182 31.60459783 10.55405361 36 13 C33.83836487 19.93998648 31.1063786 26.43117569 28 33 C22.74212698 28.70785876 18.37065365 24.17641661 14 19 C12.99979816 17.83759404 11.99839704 16.67621944 10.99609375 15.515625 C9.91390434 14.26055302 8.83187402 13.00534385 7.75 11.75 C7.23026611 11.14736328 6.71053223 10.54472656 6.17504883 9.92382812 C3.68062475 7.01657018 1.24590452 4.10734734 -1 1 C-0.67 0.67 -0.34 0.34 0 0 Z " fill="#04BCB0" transform="translate(16,107)"/>
<path d="M0 0 C7.37468352 6.1455696 14.00249514 12.75650356 20.2578125 20.03515625 C23.03176921 23.16363209 26.00383929 26.08580113 29 29 C25.77653489 31.43294867 22.51778015 33.81446918 19.25 36.1875 C17.77273437 37.26064453 17.77273437 37.26064453 16.265625 38.35546875 C15.51796875 38.89816406 14.7703125 39.44085938 14 40 C12.12155557 37.18233336 11.23190582 35.03000455 10.1953125 31.84375 C9.69064453 30.30847656 9.69064453 30.30847656 9.17578125 28.7421875 C8.82902344 27.67226563 8.48226562 26.60234375 8.125 25.5 C5.78689299 18.33454658 3.39206259 11.21476495 0.72998047 4.16210938 C0 2 0 2 0 0 Z " fill="#AF0577" transform="translate(85,9)"/>
<path d="M0 0 C0.33 0 0.66 0 1 0 C1.33 10.56 1.66 21.12 2 32 C6.95 31.34 11.9 30.68 17 30 C23.6796875 29.296875 23.6796875 29.296875 27 29 C23.67263898 35.12536915 19.77679087 40.75334094 15.75 46.4375 C15.1003125 47.35982422 14.450625 48.28214844 13.78125 49.23242188 C12.19024739 51.49024176 10.59644487 53.74602657 9 56 C0.2147814 47.2147814 -0.46861489 32.11055536 -0.48779297 20.4375 C-0.43507361 13.62125991 -0.26985985 6.81114393 0 0 Z " fill="#FA9C0E" transform="translate(7,52)"/>
<path d="M0 0 C0.33 0 0.66 0 1 0 C1.51139597 3.14408784 2.00696036 6.29048573 2.5 9.4375 C2.64308594 10.31599609 2.78617188 11.19449219 2.93359375 12.09960938 C3.81809002 17.80671625 4.14099827 23.22494572 4 29 C-2.59145487 31.39146796 -9.07436377 32.89966527 -16 34 C-14.64185098 29.65857684 -12.97289819 25.63810126 -10.99609375 21.54296875 C-10.71274673 20.9545369 -10.42939972 20.36610504 -10.13746643 19.75984192 C-9.54331991 18.52794488 -8.94742584 17.29688928 -8.34985352 16.06665039 C-7.43259357 14.17739436 -6.52156932 12.28522421 -5.61132812 10.39257812 C-1.13643973 1.13643973 -1.13643973 1.13643973 0 0 Z " fill="#640380" transform="translate(60,8)"/>
<path d="M0 0 C5.93722626 3.17183363 11.14001545 6.98433924 16.4375 11.125 C17.26443359 11.75792969 18.09136719 12.39085937 18.94335938 13.04296875 C19.72388672 13.65011719 20.50441406 14.25726563 21.30859375 14.8828125 C22.37291626 15.70869873 22.37291626 15.70869873 23.45874023 16.55126953 C23.96735596 17.02935059 24.47597168 17.50743164 25 18 C25 18.66 25 19.32 25 20 C18.8792892 23.6224615 12.60288678 26.36335238 6 29 C4.99028956 25.10661739 3.99394645 21.20993415 3 17.3125 C2.71382813 16.20970703 2.42765625 15.10691406 2.1328125 13.97070312 C1.86210938 12.90400391 1.59140625 11.83730469 1.3125 10.73828125 C1.06113281 9.75899658 0.80976562 8.77971191 0.55078125 7.77075195 C0.01929925 5.0970865 -0.10407774 2.71686266 0 0 Z " fill="#600682" transform="translate(114,39)"/>
<path d="M0 0 C5.61 0 11.22 0 17 0 C17 5.61 17 11.22 17 17 C11.39 17 5.78 17 0 17 C0 11.39 0 5.78 0 0 Z " fill="#CCCCCC" transform="translate(126,132)"/>
<path d="M0 0 C5.61 0 11.22 0 17 0 C17 5.61 17 11.22 17 17 C11.39 17 5.78 17 0 17 C0 11.39 0 5.78 0 0 Z " fill="#FDFDFD" transform="translate(7,132)"/>
<path d="M0 0 C2.64581609 -0.22296203 4.99279502 -0.28148752 7.625 -0.1875 C10.05875 -0.125625 12.4925 -0.06375 15 0 C15 5.61 15 11.22 15 17 C9.39 17 3.78 17 -2 17 C-2.25 3.375 -2.25 3.375 0 0 Z " fill="#FEFEFE" transform="translate(111,132)"/>
<path d="M0 0 C4.33713456 6.15593293 3.89751924 8.35785186 2.9375 15.75 C-2.6725 15.75 -8.2825 15.75 -14.0625 15.75 C-14.0625 10.14 -14.0625 4.53 -14.0625 -1.25 C-3.87353448 -2.84586207 -3.87353448 -2.84586207 0 0 Z " fill="#CBCCCC" transform="translate(38.0625,133.25)"/>
<path d="M0 0 C5.61 0 11.22 0 17 0 C18.34441521 13.32193255 18.34441521 13.32193255 17 15.96875 C13.83601664 17.60017892 10.73579599 17.04767409 7.3125 16.6875 C4.899375 16.460625 2.48625 16.23375 0 16 C0 10.72 0 5.44 0 0 Z " fill="#CCCCCC" transform="translate(7,13)"/>
<path d="M0 0 C5.61 0 11.22 0 17 0 C17 5.28 17 10.56 17 16 C11.39 16 5.78 16 0 16 C0 10.72 0 5.44 0 0 Z " fill="#FEFEFE" transform="translate(126,13)"/>
<path d="M0 0 C5.61 0 11.22 0 17 0 C17 5.28 17 10.56 17 16 C11.39 16 5.78 16 0 16 C0 10.72 0 5.44 0 0 Z " fill="#CCCCCC" transform="translate(109,13)"/>
<path d="M0 0 C2.31 0 4.62 0 7 0 C7 7.26 7 14.52 7 22 C-0.92 22 -8.84 22 -17 22 C-17 20.35 -17 18.7 -17 17 C-11.39 17 -5.78 17 0 17 C0 11.39 0 5.78 0 0 Z " fill="#FEFEFE" transform="translate(143,132)"/>
<path d="M0 0 C0.66 0 1.32 0 2 0 C1.37143878 3.91834435 0.16760882 7.14548449 -1.50390625 10.73828125 C-1.99697266 11.80498047 -2.49003906 12.87167969 -2.99804688 13.97070312 C-3.51431641 15.07349609 -4.03058594 16.17628906 -4.5625 17.3125 C-5.08263672 18.43462891 -5.60277344 19.55675781 -6.13867188 20.71289062 C-7.42099374 23.47752951 -8.70824847 26.23975766 -10 29 C-11.83553796 26.24669306 -12.40778129 24.88342796 -13.0703125 21.76953125 C-13.24433594 20.96708984 -13.41835937 20.16464844 -13.59765625 19.33789062 C-13.77167969 18.50451172 -13.94570312 17.67113281 -14.125 16.8125 C-14.39763672 15.5450293 -14.39763672 15.5450293 -14.67578125 14.25195312 C-15.12292753 12.1691928 -15.56222376 10.08474994 -16 8 C-8.66759014 3.69465038 -8.66759014 3.69465038 -4.625 2.3125 C-1.23272781 1.37410786 -1.23272781 1.37410786 0 0 Z " fill="#0D177F" transform="translate(137,59)"/>
<path d="M0 0 C0.66 0.33 1.32 0.66 2 1 C1.67 1.33 1.34 1.66 1 2 C0.76472227 4.34987262 0.58613583 6.70556039 0.4375 9.0625 C0.293125 11.351875 0.14875 13.64125 0 16 C-5.61 16 -11.22 16 -17 16 C-17 12.04 -17 8.08 -17 4 C-15.94039063 3.87882813 -14.88078125 3.75765625 -13.7890625 3.6328125 C-12.40098676 3.46399248 -11.01296881 3.29469692 -9.625 3.125 C-8.92632812 3.04636719 -8.22765625 2.96773437 -7.5078125 2.88671875 C-3.30927841 2.44779555 -3.30927841 2.44779555 0 0 Z " fill="#C9CCCD" transform="translate(109,133)"/>
<path d="M0 0 C5.61 0 11.22 0 17 0 C17 3.96 17 7.92 17 12 C11.39 12 5.78 12 0 12 C0 8.04 0 4.08 0 0 Z " fill="#CCCCCC" transform="translate(126,0)"/>
<path d="M0 0 C5.61 0 11.22 0 17 0 C17 3.96 17 7.92 17 12 C11.39 12 5.78 12 0 12 C0 8.04 0 4.08 0 0 Z " fill="#FEFEFE" transform="translate(109,0)"/>
<path d="M0 0 C5.61 0 11.22 0 17 0 C17 3.96 17 7.92 17 12 C11.39 12 5.78 12 0 12 C0 8.04 0 4.08 0 0 Z " fill="#CCCCCC" transform="translate(24,0)"/>
<path d="M0 0 C5.61 0 11.22 0 17 0 C17 3.96 17 7.92 17 12 C11.39 12 5.78 12 0 12 C0 8.04 0 4.08 0 0 Z " fill="#FEFEFE" transform="translate(7,0)"/>
<path d="M0 0 C0 3.96 0 7.92 0 12 C-5.61 12 -11.22 12 -17 12 C-17 8.37 -17 4.74 -17 1 C-15.30875 0.835 -13.6175 0.67 -11.875 0.5 C-10.92367187 0.4071875 -9.97234375 0.314375 -8.9921875 0.21875 C-6.00188528 0.00013783 -2.99828261 0 0 0 Z " fill="#FBFDFD" transform="translate(92,137)"/>
<path d="M0 0 C5.61 0 11.22 0 17 0 C17 2.97 17 5.94 17 9 C11.06818762 12.09485864 6.67959493 12.2745039 0 12 C0 8.04 0 4.08 0 0 Z " fill="#FEFDFE" transform="translate(41,0)"/>
<path d="M0 0 C5.61 0 11.22 0 17 0 C17 5.28 17 10.56 17 16 C12 16 12 16 10.33081055 14.85424805 C9.85426025 14.32871338 9.37770996 13.80317871 8.88671875 13.26171875 C8.36142578 12.68873047 7.83613281 12.11574219 7.29492188 11.52539062 C6.76447266 10.91888672 6.23402344 10.31238281 5.6875 9.6875 C5.13771484 9.09259766 4.58792969 8.49769531 4.02148438 7.88476562 C0 3.4136743 0 3.4136743 0 0 Z " fill="#FEFBFD" transform="translate(92,13)"/>
<path d="M0 0 C5.61 0 11.22 0 17 0 C17 5.28 17 10.56 17 16 C12.82002213 14.95500553 11.20080286 13.81242589 7.9375 11.125 C7.08027344 10.42632812 6.22304687 9.72765625 5.33984375 9.0078125 C4.56769531 8.34523438 3.79554687 7.68265625 3 7 C2.40316406 6.50242187 1.80632812 6.00484375 1.19140625 5.4921875 C0 4 0 4 0 0 Z " fill="#FDFBFD" transform="translate(109,30)"/>
<path d="M0 0 C0 3.63 0 7.26 0 11 C-5.61 11 -11.22 11 -17 11 C-17 8.03 -17 5.06 -17 2 C-17.66 1.67 -18.32 1.34 -19 1 C-16.77100213 0.83109082 -14.54179338 0.66496313 -12.3125 0.5 C-10.45044922 0.36078125 -10.45044922 0.36078125 -8.55078125 0.21875 C-5.70498353 0.04343133 -2.85119296 0 0 0 Z " fill="#C7CDCE" transform="translate(75,138)"/>
<path d="M0 0 C4.95 0 9.9 0 15 0 C7.92682927 13.31420373 7.92682927 13.31420373 4 17 C2.68 17 1.36 17 0 17 C0 11.39 0 5.78 0 0 Z " fill="#FDFAFC" transform="translate(7,30)"/>
<path d="M0 0 C5.61 0.33 11.22 0.66 17 1 C17 3.97 17 6.94 17 10 C11.39 10 5.78 10 0 10 C0 6.7 0 3.4 0 0 Z " fill="#FAFDFD" transform="translate(41,139)"/>
<path d="M0 0 C1.88182999 2.82274499 2.8264738 5.07033193 3.91015625 8.25390625 C4.26013672 9.27291016 4.61011719 10.29191406 4.97070312 11.34179688 C5.33099609 12.40462891 5.69128906 13.46746094 6.0625 14.5625 C6.78141773 16.66835635 7.50141588 18.77384426 8.22265625 20.87890625 C8.69844116 22.27991577 8.69844116 22.27991577 9.18383789 23.70922852 C9.94382006 25.98854753 9.94382006 25.98854753 11 28 C7.37 28.33 3.74 28.66 0 29 C0 19.43 0 9.86 0 0 Z " fill="#FE4600" transform="translate(8,56)"/>
<path d="M0 0 C1.65 0 3.3 0 5 0 C5.32613281 0.83144531 5.65226563 1.66289063 5.98828125 2.51953125 C6.42527344 3.60621094 6.86226562 4.69289063 7.3125 5.8125 C7.74175781 6.89144531 8.17101563 7.97039062 8.61328125 9.08203125 C9.87259748 11.73191638 10.90432721 13.05182324 13 15 C13 15.66 13 16.32 13 17 C8.71 17 4.42 17 0 17 C0 11.39 0 5.78 0 0 Z " fill="#FEFEFC" transform="translate(7,98)"/>
<path d="M0 0 C5.28 0 10.56 0 16 0 C16 5.61 16 11.22 16 17 C15.01 17 14.02 17 13 17 C12.896875 16.01 12.79375 15.02 12.6875 14 C11.28468449 8.74211896 6.65317782 6.52373716 2.3359375 3.69921875 C1.56507813 3.13847656 0.79421875 2.57773437 0 2 C0 1.34 0 0.68 0 0 Z " fill="#FBFAFC" transform="translate(127,47)"/>
<path d="M0 0 C5.61 0 11.22 0 17 0 C17 2.64 17 5.28 17 8 C11.39 8 5.78 8 0 8 C0 5.36 0 2.72 0 0 Z " fill="#CBC8CA" transform="translate(58,0)"/>
<path d="M0 0 C2.31 0 4.62 0 7 0 C7 5.61 7 11.22 7 17 C4.69 17 2.38 17 0 17 C0 11.39 0 5.78 0 0 Z " fill="#CCCCCC" transform="translate(143,115)"/>
<path d="M0 0 C2.31 0 4.62 0 7 0 C7 5.61 7 11.22 7 17 C4.69 17 2.38 17 0 17 C0 11.39 0 5.78 0 0 Z " fill="#FDFDFD" transform="translate(0,115)"/>
<path d="M0 0 C2.31 0 4.62 0 7 0 C7 5.61 7 11.22 7 17 C4.69 17 2.38 17 0 17 C0 11.39 0 5.78 0 0 Z " fill="#FEFEFE" transform="translate(143,98)"/>
<path d="M0 0 C2.31 0 4.62 0 7 0 C7 5.61 7 11.22 7 17 C4.69 17 2.38 17 0 17 C0 11.39 0 5.78 0 0 Z " fill="#CDCDCD" transform="translate(0,98)"/>
<path d="M0 0 C2.31 0 4.62 0 7 0 C7 5.61 7 11.22 7 17 C4.69 17 2.38 17 0 17 C0 11.39 0 5.78 0 0 Z " fill="#CCCCCC" transform="translate(143,81)"/>
<path d="M0 0 C2.31 0 4.62 0 7 0 C7 5.61 7 11.22 7 17 C4.69 17 2.38 17 0 17 C0 11.39 0 5.78 0 0 Z " fill="#FEFEFE" transform="translate(143,64)"/>
<path d="M0 0 C2.31 0 4.62 0 7 0 C7 5.61 7 11.22 7 17 C4.69 17 2.38 17 0 17 C0 11.39 0 5.78 0 0 Z " fill="#CCCCCC" transform="translate(143,47)"/>
<path d="M0 0 C2.31 0 4.62 0 7 0 C7 5.61 7 11.22 7 17 C4.69 17 2.38 17 0 17 C0 11.39 0 5.78 0 0 Z " fill="#FEFEFE" transform="translate(143,30)"/>
<path d="M0 0 C5.61 0 11.22 0 17 0 C17 0.99 17 1.98 17 3 C15.21046815 3.83790789 13.41830305 4.67019396 11.625 5.5 C10.12839844 6.19609375 10.12839844 6.19609375 8.6015625 6.90625 C6 8 6 8 4 8 C3.34 9.65 2.68 11.3 2 13 C1.34 13 0.68 13 0 13 C0 8.71 0 4.42 0 0 Z " fill="#FDFAFC" transform="translate(24,13)"/>
<path d="M0 0 C2.31 0 4.62 0 7 0 C7 5.28 7 10.56 7 16 C4.69 16 2.38 16 0 16 C0 10.72 0 5.44 0 0 Z " fill="#FDFDFD" transform="translate(0,13)"/>
<path d="M0 0 C1.98 0 3.96 0 6 0 C6 5.28 6 10.56 6 16 C4.02 16 2.04 16 0 16 C0 10.72 0 5.44 0 0 Z " fill="#FFFFFF" transform="translate(0,47)"/>
<path d="M0 0 C1.98 0 3.96 0 6 0 C6 5.28 6 10.56 6 16 C4.02 16 2.04 16 0 16 C0 10.72 0 5.44 0 0 Z " fill="#CCCCCC" transform="translate(0,30)"/>
<path d="M0 0 C5.61 0 11.22 0 17 0 C17 1.65 17 3.3 17 5 C11.39 5 5.78 5 0 5 C0 3.35 0 1.7 0 0 Z " fill="#FEFEFE" transform="translate(126,149)"/>
<path d="M0 0 C5.61 0 11.22 0 17 0 C17 1.65 17 3.3 17 5 C11.39 5 5.78 5 0 5 C0 3.35 0 1.7 0 0 Z " fill="#CCCCCC" transform="translate(109,149)"/>
<path d="M0 0 C5.61 0 11.22 0 17 0 C17 1.65 17 3.3 17 5 C11.39 5 5.78 5 0 5 C0 3.35 0 1.7 0 0 Z " fill="#FFFFFF" transform="translate(92,149)"/>
<path d="M0 0 C5.61 0 11.22 0 17 0 C17 1.65 17 3.3 17 5 C11.39 5 5.78 5 0 5 C0 3.35 0 1.7 0 0 Z " fill="#CCCCCC" transform="translate(75,149)"/>
<path d="M0 0 C5.61 0 11.22 0 17 0 C17 1.65 17 3.3 17 5 C11.39 5 5.78 5 0 5 C0 3.35 0 1.7 0 0 Z " fill="#FEFEFE" transform="translate(58,149)"/>
<path d="M0 0 C5.61 0 11.22 0 17 0 C17 1.65 17 3.3 17 5 C11.39 5 5.78 5 0 5 C0 3.35 0 1.7 0 0 Z " fill="#CCCCCC" transform="translate(41,149)"/>
<path d="M0 0 C5.61 0 11.22 0 17 0 C17 1.65 17 3.3 17 5 C11.39 5 5.78 5 0 5 C0 3.35 0 1.7 0 0 Z " fill="#FEFEFE" transform="translate(24,149)"/>
<path d="M0 0 C5.61 0 11.22 0 17 0 C17 1.65 17 3.3 17 5 C11.39 5 5.78 5 0 5 C0 3.35 0 1.7 0 0 Z " fill="#CCCCCC" transform="translate(7,149)"/>
<path d="M0 0 C0.99 0 1.98 0 3 0 C3 5.61 3 11.22 3 17 C0.36 17 -2.28 17 -5 17 C-3.35 11.39 -1.7 5.78 0 0 Z " fill="#C6C7CA" transform="translate(140,98)"/>
<path d="M0 0 C2.31 0 4.62 0 7 0 C7 3.96 7 7.92 7 12 C4.69 12 2.38 12 0 12 C0 8.04 0 4.08 0 0 Z " fill="#FFFFFF" transform="translate(143,0)"/>
<path d="M0 0 C3.25564635 2.60451708 5.70856166 4.57025062 8.3125 7.625 C8.82425781 8.21539062 9.33601563 8.80578125 9.86328125 9.4140625 C11 11 11 11 11 13 C7.37 13 3.74 13 0 13 C0 8.71 0 4.42 0 0 Z " fill="#F8FCFC" transform="translate(24,119)"/>
<path d="M0 0 C0 3.3 0 6.6 0 10 C-4.62 10 -9.24 10 -14 10 C-11.28919443 7.28919443 -8.88899318 5.01908993 -5.875 2.75 C-5.19179687 2.22921875 -4.50859375 1.7084375 -3.8046875 1.171875 C-2 0 -2 0 0 0 Z " fill="#C8C8CA" transform="translate(126,122)"/>
<path d="M0 0 C7.26 0 14.52 0 22 0 C22 0.33 22 0.66 22 1 C17.05 1 12.1 1 7 1 C7 6.61 7 12.22 7 18 C7.99 18 8.98 18 10 18 C9.68289063 18.52078125 9.36578125 19.0415625 9.0390625 19.578125 C7.71079489 22.67408709 7.57635753 25.39404121 7.375 28.75 C7.26285156 30.50570312 7.26285156 30.50570312 7.1484375 32.296875 C7.09945313 33.18890625 7.05046875 34.0809375 7 35 C4.69 35 2.38 35 0 35 C0 34.67 0 34.34 0 34 C1.98 34 3.96 34 6 34 C6 28.72 6 23.44 6 18 C4.02 18 2.04 18 0 18 C0 17.67 0 17.34 0 17 C1.98 17 3.96 17 6 17 C6 11.72 6 6.44 6 1 C4.02 1 2.04 1 0 1 C0 0.67 0 0.34 0 0 Z " fill="#DDDDDD" transform="translate(0,29)"/>
<path d="M0 0 C16.17 0 32.34 0 49 0 C46.33440687 1.77706209 43.9719385 2.87548273 41 4 C41 3.01 41 2.02 41 1 C27.47 1 13.94 1 0 1 C0 0.67 0 0.34 0 0 Z " fill="#E1DCDE" transform="translate(0,12)"/>
<path d="M0 0 C0.99 0 1.98 0 3 0 C3 5.61 3 11.22 3 17 C2.01 17 1.02 17 0 17 C0 11.39 0 5.78 0 0 Z " fill="#C9CACC" transform="translate(140,64)"/>
<path d="M0 0 C14.85 0 29.7 0 45 0 C45 0.33 45 0.66 45 1 C31.47 1 17.94 1 4 1 C3.67 1.99 3.34 2.98 3 4 C2.01 2.68 1.02 1.36 0 0 Z " fill="#E1DEE0" transform="translate(105,29)"/>
<path d="M0 0 C2.31 0 4.62 0 7 0 C7 1.65 7 3.3 7 5 C4.69 5 2.38 5 0 5 C0 3.35 0 1.7 0 0 Z " fill="#CCCCCC" transform="translate(143,149)"/>
<path d="M0 0 C2.31 0 4.62 0 7 0 C7 1.65 7 3.3 7 5 C4.69 5 2.38 5 0 5 C0 3.35 0 1.7 0 0 Z " fill="#FDFDFD" transform="translate(0,149)"/>
<path d="M0 0 C2.34914492 2.34914492 2.73140357 3.95679446 3.625 7.125 C3.88539062 8.03507812 4.14578125 8.94515625 4.4140625 9.8828125 C4.70410156 10.93082031 4.70410156 10.93082031 5 12 C3.35 12 1.7 12 0 12 C0 8.04 0 4.08 0 0 Z " fill="#CFCBC4" transform="translate(7,86)"/>
<path d="M0 0 C0.84433594 0.00322266 1.68867187 0.00644531 2.55859375 0.00976562 C3.86763672 0.02233398 3.86763672 0.02233398 5.203125 0.03515625 C6.09128906 0.03966797 6.97945312 0.04417969 7.89453125 0.04882812 C10.08079829 0.06058225 12.26692679 0.07701376 14.453125 0.09765625 C14.453125 0.42765625 14.453125 0.75765625 14.453125 1.09765625 C9.833125 1.42765625 5.213125 1.75765625 0.453125 2.09765625 C0.453125 2.42765625 0.453125 2.75765625 0.453125 3.09765625 C-2.516875 3.09765625 -5.486875 3.09765625 -8.546875 3.09765625 C-8.546875 2.43765625 -8.546875 1.77765625 -8.546875 1.09765625 C-5.6220117 0.25573843 -3.03945844 -0.02053688 0 0 Z " fill="#253A91" transform="translate(90.546875,100.90234375)"/>
<path d="M0 0 C1.32 0 2.64 0 4 0 C3.68289063 0.52078125 3.36578125 1.0415625 3.0390625 1.578125 C1.71079489 4.67408709 1.57635753 7.39404121 1.375 10.75 C1.26285156 12.50570312 1.26285156 12.50570312 1.1484375 14.296875 C1.09945313 15.18890625 1.05046875 16.0809375 1 17 C-1.31 17 -3.62 17 -6 17 C-6 16.67 -6 16.34 -6 16 C-4.02 16 -2.04 16 0 16 C0 10.72 0 5.44 0 0 Z " fill="#E8E6E8" transform="translate(6,47)"/>
</svg>
