<svg xmlns="http://www.w3.org/2000/svg" xmlns:xlink="http://www.w3.org/1999/xlink" width="120.639" height="61.688" viewBox="0 0 120.639 61.688">
  <defs>
    <clipPath id="clip-path">
      <rect id="Rectangle_16466" data-name="Rectangle 16466" width="120.639" height="61.688" transform="translate(0 0)" fill="none"/>
    </clipPath>
  </defs>
  <g id="Group_29728" data-name="Group 29728" transform="translate(0 0)">
    <path id="Path_254433" data-name="Path 254433" d="M0,.733V4.424H4.308V19.488H8.87V4.424h4.338V.733Z" fill="#fff"/>
    <g id="Group_29729" data-name="Group 29729">
      <g id="Group_29728-2" data-name="Group 29728" clip-path="url(#clip-path)">
        <path id="Path_254434" data-name="Path 254434" d="M22.416,19.855a9.785,9.785,0,0,1-10.055-9.661A9.866,9.866,0,0,1,22.443.34a9.534,9.534,0,0,1,9.8,9.66,9.717,9.717,0,0,1-9.828,9.855M22.332,4.591a5.317,5.317,0,0,0-5.3,5.545,5.3,5.3,0,1,0,10.592-.023,5.309,5.309,0,0,0-5.294-5.522" fill="#fff" fill-rule="evenodd"/>
        <path id="Path_254435" data-name="Path 254435" d="M8.87,40.1H4.308V25.035H0V21.343H13.208v3.692H8.87Z" fill="#fff" fill-rule="evenodd"/>
        <path id="Path_254436" data-name="Path 254436" d="M18.979,40.1H14.416V21.343h4.563v7.664h6.168V21.343h4.562V40.1H25.147V32.7H18.979Z" fill="#fff" fill-rule="evenodd"/>
        <path id="Path_254437" data-name="Path 254437" d="M35.847,28.865h6.193v3.692H35.876v3.857h6.164V40.1H31.313V21.343H42.041v3.692H35.847Z" fill="#fff" fill-rule="evenodd"/>
        <path id="Path_254438" data-name="Path 254438" d="M6.336,60.712H1.772V41.96H6.336l6.841,10.556V41.96H17.74V60.712H13.177L6.336,50.041Z" fill="#fff" fill-rule="evenodd"/>
        <path id="Path_254439" data-name="Path 254439" d="M23.88,49.476h6.194v3.692H23.907v3.857h6.167v3.687H19.347V41.956H30.074v3.686H23.88Z" fill="#fff" fill-rule="evenodd"/>
        <path id="Path_254440" data-name="Path 254440" d="M50.576,41.956h4.788L50.35,60.712H45.62l-2.4-11.094L40.832,60.712h-4.7L31.286,41.956h4.842l2.4,10.648,2.506-10.648H45.62l2.423,10.9Z" fill="#fff" fill-rule="evenodd"/>
        <path id="Path_254441" data-name="Path 254441" d="M52.294,58.5v.225h.67v1.989h.247V58.723h.673V58.5Z" fill="#1a1718" fill-rule="evenodd"/>
        <path id="Path_254442" data-name="Path 254442" d="M56.137,58.5,55.3,60.366,54.462,58.5h-.29v2.214h.244v-1.75h.008l.8,1.75h.161l.794-1.766h.005v1.766h.25V58.5Z" fill="#1a1718" fill-rule="evenodd"/>
        <path id="Path_254443" data-name="Path 254443" d="M84.465,52.072l-3.8,9.616L69,46.787Z" fill="#32b3ad" fill-rule="evenodd"/>
        <path id="Path_254444" data-name="Path 254444" d="M84.465,52.072l-3.8,9.616L106.458,59.6Z" fill="#29badc" fill-rule="evenodd"/>
        <path id="Path_254445" data-name="Path 254445" d="M83.285,23.7,69,46.787,106.459,59.6Z" fill="#0093d6" fill-rule="evenodd"/>
        <path id="Path_254446" data-name="Path 254446" d="M76.905,34.01,69,46.787l-3.23-10.7Z" fill="#efa00c" fill-rule="evenodd"/>
        <path id="Path_254447" data-name="Path 254447" d="M83.285,23.7,97.777.466l-1.51,43.341Z" fill="#173283" fill-rule="evenodd"/>
        <path id="Path_254448" data-name="Path 254448" d="M72.305,34.87,65.713,20.65l.06,15.442Z" fill="#e96318" fill-rule="evenodd"/>
        <path id="Path_254449" data-name="Path 254449" d="M76.905,34.01,65.711,20.65,89.5,13.737Z" fill="#db0c34" fill-rule="evenodd"/>
        <path id="Path_254450" data-name="Path 254450" d="M70.17,35.246l-4.458-14.6L76.9,34.01Z" fill="#d50f22" fill-rule="evenodd"/>
        <path id="Path_254451" data-name="Path 254451" d="M74.367,6.554l-8.66,14.1L80.666,16.3Z" fill="#9a1a78" fill-rule="evenodd"/>
        <path id="Path_254452" data-name="Path 254452" d="M74.367,6.554,87.731,0,80.666,16.3Z" fill="#c6006d" fill-rule="evenodd"/>
        <path id="Path_254453" data-name="Path 254453" d="M89.5,13.735,87.732,0,80.665,16.3Z" fill="#522b81" fill-rule="evenodd"/>
        <path id="Path_254454" data-name="Path 254454" d="M89.5,13.735,87.732,0,97.777.466Z" fill="#9a1a78" fill-rule="evenodd"/>
        <path id="Path_254455" data-name="Path 254455" d="M96.941,24.4,97.777.468,103.5,19.114Z" fill="#c6006d" fill-rule="evenodd"/>
        <path id="Path_254456" data-name="Path 254456" d="M109.521,14.245,97.779.465,103.5,19.117Z" fill="#9a1a78" fill-rule="evenodd"/>
        <path id="Path_254457" data-name="Path 254457" d="M108.807,33.578,96.946,24.4l-.679,19.406Z" fill="#9a1a78" fill-rule="evenodd"/>
        <path id="Path_254458" data-name="Path 254458" d="M114.855,38.254,96.941,24.4l12.58-10.159Z" fill="#173283" fill-rule="evenodd"/>
        <path id="Path_254459" data-name="Path 254459" d="M112.509,27.689l8.126-4.055-11.114-9.389Z" fill="#522b81" fill-rule="evenodd"/>
        <path id="Path_254460" data-name="Path 254460" d="M112.509,27.689l8.126-4.055-5.782,14.62Z" fill="#053380" fill-rule="evenodd"/>
        <path id="Path_254461" data-name="Path 254461" d="M120.6,42.7l.037-19.067-3.3,8.322Z" fill="#00418b" fill-rule="evenodd"/>
        <path id="Path_254462" data-name="Path 254462" d="M117.344,31.946l-2.489,6.308L108.8,33.576,96.265,43.807,120.6,42.7Z" fill="#3e2b80" fill-rule="evenodd"/>
        <path id="Path_254463" data-name="Path 254463" d="M118.922,49.385,120.6,42.7,96.266,43.807Z" fill="#00418b" fill-rule="evenodd"/>
        <path id="Path_254464" data-name="Path 254464" d="M118.922,49.385,106.458,59.6,96.266,43.807Z" fill="#0c2f76" fill-rule="evenodd"/>
      </g>
    </g>
  </g>
</svg>
