<?xml version="1.0" encoding="UTF-8"?>
<svg version="1.1" xmlns="http://www.w3.org/2000/svg" width="16" height="16">
<path d="M0 0 C3.76241232 0.80623121 6.39635324 2.46756861 8.625 5.5625 C9.41783761 8.6265491 9.14877424 10.31509973 8.625 13.5625 C6.35577752 16.46710477 4.77504537 16.54106495 1.125 17.0625 C-2.375 16.5625 -2.375 16.5625 -4.8125 14.5 C-6.76425759 10.83069573 -6.97177999 8.66536241 -6.375 4.5625 C-4.44968381 1.78148773 -3.29035463 0.77929452 0 0 Z " fill="#8E3393" transform="translate(7.375,-0.5625)"/>
<path d="M0 0 C0.66 0 1.32 0 2 0 C3.65 2.97 5.3 5.94 7 9 C0.47692308 9.36923077 0.47692308 9.36923077 -1.9375 7.5 C-2.4634375 6.7575 -2.4634375 6.7575 -3 6 C-1.125 1.125 -1.125 1.125 0 0 Z " fill="#18B1DD" transform="translate(5,7)"/>
<path d="M0 0 C2.125 0.375 2.125 0.375 4 1 C4.1953125 7.0546875 4.1953125 7.0546875 4 9 C3.34 9.66 2.68 10.32 2 11 C1.01 11 0.02 11 -1 11 C-1.66 9.68 -2.32 8.36 -3 7 C-2.01 6.67 -1.02 6.34 0 6 C-0.66 4.68 -1.32 3.36 -2 2 C-1.34 1.34 -0.68 0.68 0 0 Z " fill="#4A3E99" transform="translate(12,4)"/>
<path d="M0 0 C-1.2739589 2.03833424 -2.61061923 4.03852126 -4 6 C-4.66 6 -5.32 6 -6 6 C-6 4.02 -6 2.04 -6 0 C-3 -1 -3 -1 0 0 Z " fill="#EC473B" transform="translate(7,5)"/>
<path d="M0 0 C2.31 0 4.62 0 7 0 C6.34 1.32 5.68 2.64 5 4 C4.01 4 3.02 4 2 4 C1.34 2.68 0.68 1.36 0 0 Z " fill="#39549E" transform="translate(9,11)"/>
</svg>
