<svg xmlns="http://www.w3.org/2000/svg" xmlns:xlink="http://www.w3.org/1999/xlink" width="184.872" height="25.616" viewBox="0 0 184.872 25.616">
  <defs>
    <clipPath id="clip-path">
      <rect id="Rectangle_134" data-name="Rectangle 134" width="16.141" height="16.141" fill="#173183"/>
    </clipPath>
  </defs>
  <g id="Group_82" data-name="Group 82" transform="translate(-93.762 -104.5)">
    <rect id="Rectangle_135" data-name="Rectangle 135" width="48.421" height="24.211" transform="translate(101.832 105.905)" fill="none"/>
    <g id="Group_5031" data-name="Group 5031" transform="translate(0 -0.26)">
      <path id="Path_63" data-name="Path 63" d="M8.072,0,0,8.07l8.07,8.071,8.07-8.071Z" transform="translate(101.832 105.905)" fill="#c7006d"/>
      <rect id="Rectangle_131" data-name="Rectangle 131" width="11.413" height="11.413" transform="matrix(0.707, -0.707, 0.707, 0.707, 109.902, 122.045)" fill="#9c0087"/>
      <rect id="Rectangle_132" data-name="Rectangle 132" width="11.413" height="11.413" transform="matrix(0.707, -0.707, 0.707, 0.707, 128.334, 122.045)" fill="#00a0e6"/>
      <path id="Path_64" data-name="Path 64" d="M86.878,0,78.807,8.07l8.07,8.071,8.07-8.071Z" transform="translate(40.313 104.76)" fill="#3e2b82"/>
      <path id="Path_65" data-name="Path 65" d="M86.878,0,78.807,8.07l8.07,8.071,8.07-8.071Z" transform="translate(14.955 113.975)" fill="#f00082"/>
      <g id="Group_75" data-name="Group 75" transform="translate(136.404 105.905)" clip-path="url(#clip-path)">
        <rect id="Rectangle_133" data-name="Rectangle 133" width="11.414" height="11.413" transform="translate(0 8.07) rotate(-44.994)" fill="#173183"/>
      </g>
      <rect id="Rectangle_136" data-name="Rectangle 136" width="48.421" height="24.211" transform="translate(101.832 105.905)" fill="none"/>
    </g>
    <text id="NewersWorld" transform="translate(158.634 123.5)" fill="#2c2c2c" font-size="18" font-family="'Poppins', sans-serif" font-weight="500"><tspan x="0" y="0">NewersWorld</tspan></text>
  </g>
</svg>
